#!OML:ASF H:\Terrain\Patient Classification 1\Walking\steve\steve.ASF
:FULLY-SPECIFIED
:DEGREES
346
root 9.65239 16.6055 26.9813 10.0071 -5.42577 -0.133332
lowerback 0.541649 3.71081 -3.96695
upperback -2.0917 4.85268 -1.20794
thorax -2.68003 2.49015 0.821315
lowerneck -10.654 -2.70678 -4.33407
upperneck 14.1452 -3.83544 5.66623
head 6.23599 -1.64772 2.18699
rclavicle -8.79622e-015 9.93923e-015
rhumerus -47.9541 -1.52606 -85.0282
rradius 31.5242
rwrist 1.90806
rhand -14.3436 -34.5008
rfingers 7.12502
rthumb 11.7978 -64.1485
lclavicle -8.79622e-015 9.93923e-015
lhumerus -19.0532 -6.1819 80.0891
lradius 35.6312
lwrist 15.0707
lhand -26.1475 -18.6548
lfingers 7.12502
lthumb 0.403284 11.3246
rfemur -25.983 4.47693 22.2312
rtibia 58.4224
rfoot -21.7089 2.60974
rtoes -4.76141
lfemur -26.2012 0.829602 -24.3141
ltibia 38.1396
lfoot -20.23 -6.52465
ltoes 1.3696
347
root 9.68017 16.6289 27.1441 9.54081 -4.9835 0.44126
lowerback 1.66297 3.46532 -4.14621
upperback -2.65131 4.44269 -1.27077
thorax -3.88288 2.3107 0.771553
lowerneck -9.85973 -2.43443 -4.05832
upperneck 14.4507 -3.50689 5.40578
head 6.16791 -1.50407 2.09524
rclavicle 2.80783e-014 3.97569e-016
rhumerus -49.514 -1.45439 -84.8928
rradius 31.6607
rwrist 1.87582
rhand -14.0701 -34.561
rfingers 7.12502
rthumb 12.0615 -64.1934
lclavicle 2.80783e-014 3.97569e-016
lhumerus -19.4549 -6.6994 80.454
lradius 36.1871
lwrist 15.3027
lhand -25.9825 -19.5555
lfingers 7.12502
lthumb 0.562668 10.4235
rfemur -27.0207 3.56489 21.6245
rtibia 58.0218
rfoot -22.7637 1.63812
rtoes -13.091
lfemur -24.5842 0.416407 -25.0813
ltibia 37.4125
lfoot -20.7297 -6.47445
ltoes 0.611016
348
root 9.68094 16.6272 27.2861 9.33739 -4.96013 0.618635
lowerback 1.67744 3.28599 -4.33602
upperback -2.55748 4.19943 -1.23571
thorax -3.7991 2.19299 0.929668
lowerneck -9.84051 -2.2012 -3.55123
upperneck 14.6407 -3.18602 4.82394
head 6.19133 -1.36467 1.854
rclavicle -3.26007e-014 1.98785e-015
rhumerus -49.6197 -1.57538 -84.8384
rradius 31.4521
rwrist 2.15043
rhand -13.4878 -34.6593
rfingers 7.12502
rthumb 12.623 -64.2579
lclavicle -3.26007e-014 1.98785e-015
lhumerus -18.5514 -6.94463 80.5474
lradius 36.6404
lwrist 15.3294
lhand -26.125 -19.2333
lfingers 7.12502
lthumb 0.425022 10.746
rfemur -28.5054 3.78423 21.5429
rtibia 57.5314
rfoot -23.3192 0.873891
rtoes -16.1445
lfemur -23.4905 0.306175 -25.3198
ltibia 36.7471
lfoot -20.9125 -6.39063
ltoes 0.463988
349
root 9.67592 16.619 27.4329 9.10178 -4.93708 0.903496
lowerback 0.682543 3.09347 -4.69766
upperback -1.7258 4.01814 -1.20827
thorax -2.39546 2.07771 1.26152
lowerneck -10.3694 -2.04968 -3.38463
upperneck 14.1887 -2.9894 4.9034
head 6.13012 -1.25065 1.86328
rclavicle 3.23522e-014 -2.78299e-014
rhumerus -48.5486 -1.6662 -84.8663
rradius 31.0909
rwrist 2.06809
rhand -13.6167 -34.6426
rfingers 7.12502
rthumb 12.4987 -64.2488
lclavicle 3.23522e-014 -2.78299e-014
lhumerus -16.3029 -7.16996 80.5094
lradius 36.843
lwrist 15.5373
lhand -26.401 -18.7054
lfingers 7.12502
lthumb 0.158447 11.2743
rfemur -29.9008 4.09952 21.3812
rtibia 56.9354
rfoot -23.5556 -0.13089
rtoes -17.995
lfemur -22.3553 0.225882 -25.6627
ltibia 36.0722
lfoot -21.0198 -6.39707
ltoes 0.215274
350
root 9.68273 16.6197 27.5935 8.82378 -4.73262 0.86439
lowerback 0.680893 2.93721 -4.60777
upperback -1.648 3.81682 -1.07234
thorax -2.30554 1.97441 1.3616
lowerneck -10.2019 -1.89893 -3.34092
upperneck 14.2238 -2.7908 4.86518
head 6.10227 -1.15714 1.86201
rclavicle -3.99309e-014 2.54444e-014
rhumerus -48.8775 -1.88354 -84.6223
rradius 31.031
rwrist 1.99335
rhand -14.1659 -34.6918
rfingers 7.12502
rthumb 11.9692 -64.3296
lclavicle -3.99309e-014 2.54444e-014
lhumerus -15.3337 -7.69437 80.6887
lradius 37.1208
lwrist 15.8411
lhand -26.6524 -18.8474
lfingers 7.12502
lthumb -0.0843358 11.1323
rfemur -30.9927 3.99025 21.5247
rtibia 56.1427
rfoot -23.4535 -0.832348
rtoes -20.29
lfemur -21.1215 0.109985 -25.7037
ltibia 35.5473
lfoot -21.3906 -6.55906
ltoes 0.972344
351
root 9.68745 16.6194 27.7469 8.67367 -4.5082 0.655927
lowerback -0.831118 2.82669 -4.11457
upperback -0.511282 3.79449 -0.974022
thorax -0.260316 1.90716 1.31567
lowerneck -10.4971 -1.99183 -3.39597
upperneck 13.2219 -2.8766 4.95583
head 5.84374 -1.19882 1.88751
rclavicle -3.52346e-014 -1.47101e-014
rhumerus -47.3832 -2.5962 -84.3377
rradius 30.6568
rwrist 2.00583
rhand -14.7648 -34.7528
rfingers 7.12502
rthumb 11.3916 -64.4233
lclavicle -3.52346e-014 -1.47101e-014
lhumerus -12.5966 -8.04326 80.7348
lradius 37.245
lwrist 15.924
lhand -26.7015 -18.8387
lfingers 7.12502
lthumb -0.131798 11.141
rfemur -32.111 3.96103 21.829
rtibia 55.1685
rfoot -23.4362 -0.845641
rtoes -20.6355
lfemur -20.0239 -0.0996434 -25.5282
ltibia 34.9485
lfoot -21.7181 -6.58186
ltoes 2.3356
352
root 9.68409 16.6192 27.9036 8.60648 -4.06359 0.936843
lowerback -0.394665 2.65727 -4.34721
upperback -1.01945 3.52956 -0.975405
thorax -1.02706 1.79684 1.40455
lowerneck -9.95549 -2.0618 -3.58472
upperneck 13.8433 -3.00595 5.13242
head 5.95686 -1.26066 1.96947
rclavicle 4.39811e-014 1.19271e-015
rhumerus -48.5586 -2.87901 -84.1837
rradius 30.5474
rwrist 2.02631
rhand -14.5864 -34.8672
rfingers 7.12502
rthumb 11.5637 -64.5281
lclavicle 4.39811e-014 1.19271e-015
lhumerus -12.5096 -8.8364 80.9891
lradius 37.6425
lwrist 15.9834
lhand -26.5827 -18.2348
lfingers 7.12502
lthumb -0.0170787 11.7449
rfemur -33.2041 3.71984 21.6147
rtibia 54.071
rfoot -23.6583 -0.33123
rtoes -19.9252
lfemur -18.9794 -0.31081 -25.8472
ltibia 34.2789
lfoot -21.7098 -6.63261
ltoes 2.15161
353
root 9.69106 16.6271 28.0816 8.16125 -4.00473 1.17972
lowerback -0.0615072 2.53301 -4.50225
upperback -1.15517 3.33992 -0.979934
thorax -1.35154 1.71134 1.46768
lowerneck -10.06 -1.95602 -3.4783
upperneck 14.7529 -2.89626 5.02792
head 6.2537 -1.20088 1.93058
rclavicle 5.46658e-016 5.96354e-015
rhumerus -49.2038 -3.09501 -83.9924
rradius 30.2312
rwrist 2.49944
rhand -13.8143 -34.9299
rfingers 7.12502
rthumb 12.3082 -64.5476
lclavicle 5.46658e-016 5.96354e-015
lhumerus -12.1336 -9.30074 81.066
lradius 38.0154
lwrist 16.1181
lhand -26.4438 -17.8432
lfingers 7.12502
lthumb 0.117144 12.1365
rfemur -33.8475 3.66198 21.3411
rtibia 52.8918
rfoot -23.592 0.46183
rtoes -17.9759
lfemur -17.332 -0.359173 -26.216
ltibia 33.4936
lfoot -21.9031 -6.51412
ltoes 1.74309
354
root 9.69308 16.6386 28.2283 8.07302 -3.91447 1.13536
lowerback 2.15096 2.46853 -4.60769
upperback -2.80874 3.07506 -0.874212
thorax -4.30694 1.65876 1.48752
lowerneck -8.69565 -1.82232 -3.24522
upperneck 15.8697 -2.7825 4.75902
head 6.35758 -1.16366 1.82905
rclavicle -1.84746e-014 -1.17283e-014
rhumerus -52.1432 -3.07285 -83.6704
rradius 30.2772
rwrist 2.73797
rhand -13.3272 -35.1042
rfingers 7.12502
rthumb 12.7778 -64.6932
lclavicle -1.84746e-014 -1.17283e-014
lhumerus -14.3181 -9.9613 81.596
lradius 38.9375
lwrist 16.1043
lhand -26.5149 -18.0773
lfingers 7.12502
lthumb 0.0484154 11.9024
rfemur -35.029 3.89154 21.3624
rtibia 51.7305
rfoot -23.352 0.739979
rtoes -15.8099
lfemur -16.1466 -0.477173 -26.1957
ltibia 32.5066
lfoot -21.9028 -6.48882
ltoes 2.31276
355
root 9.69154 16.6402 28.3763 7.97737 -3.76792 1.31822
lowerback 1.20432 2.33443 -4.80014
upperback -2.02717 2.97208 -0.77517
thorax -2.96856 1.57818 1.769
lowerneck -9.38101 -1.87326 -3.23289
upperneck 15.5443 -2.80605 4.63784
head 6.37344 -1.17726 1.78046
rclavicle 3.27995e-015 1.78906e-015
rhumerus -51.1204 -3.40158 -83.3825
rradius 30.1111
rwrist 2.78368
rhand -13.1779 -35.1809
rfingers 7.12502
rthumb 12.9217 -64.7609
lclavicle 3.27995e-015 1.78906e-015
lhumerus -12.3364 -10.2403 81.727
lradius 39.21
lwrist 16.2292
lhand -26.6472 -18.5088
lfingers 7.12502
lthumb -0.0793684 11.471
rfemur -36.1642 3.9047 21.1797
rtibia 50.5782
rfoot -23.1505 0.960944
rtoes -15.246
lfemur -14.9143 -0.52526 -26.4088
ltibia 31.4228
lfoot -21.9103 -6.6141
ltoes 2.20019
356
root 9.68803 16.6454 28.5338 7.74539 -3.49252 1.83174
lowerback -0.0481323 2.17597 -5.17196
upperback -0.923954 2.86799 -0.878782
thorax -1.13239 1.47437 1.95799
lowerneck -10.2906 -1.89846 -3.09127
upperneck 15.1423 -2.81868 4.57917
head 6.40227 -1.17097 1.72975
rclavicle -2.45748e-014 4.17448e-015
rhumerus -49.6059 -4.24725 -83.0185
rradius 29.8251
rwrist 3.47148
rhand -12.765 -35.2365
rfingers 7.12502
rthumb 13.3197 -64.7908
lclavicle -2.45748e-014 4.17448e-015
lhumerus -9.73523 -10.7526 81.5248
lradius 39.3509
lwrist 16.6329
lhand -26.134 -18.682
lfingers 7.12502
lthumb 0.416296 11.2973
rfemur -37.1402 3.5283 20.7014
rtibia 49.4159
rfoot -22.7094 1.02556
rtoes -16.3952
lfemur -13.5199 -0.410792 -26.951
ltibia 30.3645
lfoot -21.8121 -7.10419
ltoes 1.87345
